<?xml version="1.0" encoding="UTF-8" standalone="no"?>
<!-- Created with Inkscape (http://www.inkscape.org/) -->

<svg
   width="105mm"
   height="55.876221mm"
   viewBox="0 0 105 55.876221"
   version="1.1"
   id="svg1"
   inkscape:version="1.3.2 (091e20e, 2023-11-25, custom)"
   sodipodi:docname="logo.svg"
   xmlns:inkscape="http://www.inkscape.org/namespaces/inkscape"
   xmlns:sodipodi="http://sodipodi.sourceforge.net/DTD/sodipodi-0.dtd"
   xmlns="http://www.w3.org/2000/svg"
   xmlns:svg="http://www.w3.org/2000/svg">
  <sodipodi:namedview
     id="namedview1"
     pagecolor="#ffffff"
     bordercolor="#000000"
     borderopacity="0.25"
     inkscape:showpageshadow="2"
     inkscape:pageopacity="0.0"
     inkscape:pagecheckerboard="0"
     inkscape:deskcolor="#d1d1d1"
     inkscape:document-units="mm"
     inkscape:zoom="3.0943651"
     inkscape:cx="202.94955"
     inkscape:cy="178.22719"
     inkscape:window-width="2560"
     inkscape:window-height="1369"
     inkscape:window-x="-8"
     inkscape:window-y="-8"
     inkscape:window-maximized="1"
     inkscape:current-layer="layer1" />
  <defs
     id="defs1" />
  <g
     inkscape:label="Layer 1"
     inkscape:groupmode="layer"
     id="layer1">
    <path
       style="fill:#343434;fill-opacity:1;stroke-width:0.79375"
       d="M 24.190864,8.3160434 C 33.425391,3.4422623 88.848108,3.4422578 95.517483,18.320113 102.28518,33.417299 82.648344,56.284279 60.888001,49.101869 39.12766,41.919459 2.6591778,40.636878 8.8155288,25.245998 14.971879,9.8551324 24.190864,8.3160434 24.190864,8.3160434 Z"
       id="path1"
       sodipodi:nodetypes="csssc" />
    <path
       d="m 40.981131,30.815686 q 0,0.843192 0.242954,1.257642 0.257245,0.400159 0.843192,0.600238 l -0.814609,2.529575 q -1.257642,-0.128622 -2.100834,-0.614529 -0.8289,-0.500199 -1.271933,-1.429139 -0.828901,1.014688 -2.129417,1.54347 -1.300516,0.528781 -2.772528,0.528781 -1.514887,0 -2.658198,-0.585947 -1.143311,-0.600238 -1.75784,-1.672092 -0.61453,-1.071854 -0.61453,-2.472409 0,-1.600636 0.843192,-2.729655 0.843192,-1.129019 2.47241,-1.714966 1.629217,-0.585947 3.944422,-0.585947 h 2.115125 v -0.814609 q 0,-1.314807 -0.814609,-1.929337 -0.814609,-0.628821 -2.400953,-0.628821 -0.771735,0 -1.872171,0.214371 -1.100437,0.200079 -2.200873,0.571655 l -0.900358,-2.58674 q 1.386265,-0.51449 2.843986,-0.786026 1.472012,-0.271537 2.729654,-0.271537 3.129814,0 4.701866,1.34339 1.572052,1.329099 1.572052,3.830092 z m -6.774116,1.686383 q 0.886066,0 1.743549,-0.485907 0.871774,-0.500198 1.371973,-1.357681 v -2.944026 h -1.486304 q -2.05796,0 -3.015482,0.657404 -0.957523,0.643112 -0.957523,1.915046 0,1.071854 0.600238,1.643509 0.600238,0.571655 1.743549,0.571655 z m 20.62248,-19.279078 3.772925,0.400159 v 21.179832 h -3.344184 l -0.228662,-1.786423 q -0.743152,1.043271 -1.815006,1.629218 -1.057562,0.585947 -2.400952,0.585947 -2.78682,0 -4.215959,-2.143708 -1.414847,-2.143708 -1.414847,-5.873759 0,-2.315204 0.714569,-4.115919 0.728861,-1.815006 2.086543,-2.829694 1.357681,-1.02898 3.186978,-1.02898 2.200874,0 3.658595,1.529178 z m -2.643906,8.832076 q -1.472013,0 -2.272331,1.271933 -0.800317,1.271934 -0.800317,3.901548 0,2.743946 0.714569,3.958714 0.728861,1.214768 2.086542,1.214768 1.672092,0 2.915443,-1.972211 v -6.888448 q -1.100437,-1.486304 -2.643906,-1.486304 z m 21.780082,-2.815403 q 1.514887,0 2.300913,1.000397 0.786026,1.000397 0.786026,3.344184 V 34.802982 H 73.765591 V 24.055861 q 0,-0.728861 -0.07146,-1.114728 -0.05717,-0.400159 -0.257244,-0.585947 -0.185788,-0.185788 -0.571656,-0.185788 -1.043271,0 -1.943628,1.271933 V 34.802982 H 68.07762 V 24.055861 q 0,-0.728861 -0.07146,-1.114728 -0.05716,-0.400159 -0.257245,-0.585947 -0.185788,-0.185788 -0.571655,-0.185788 -0.51449,0 -0.986106,0.300119 -0.471615,0.285828 -0.957522,0.971814 V 34.802982 H 61.903742 V 19.668406 h 2.815403 l 0.242953,1.572052 q 0.728861,-1.000397 1.457722,-1.500595 0.743152,-0.500199 1.743549,-0.500199 0.914648,0 1.557761,0.457325 0.643112,0.443033 0.914648,1.400555 0.714569,-0.886066 1.514887,-1.371973 0.814609,-0.485907 1.815006,-0.485907 z"
       id="text1"
       style="font-weight:600;font-size:27.8682px;line-height:1;font-family:'Fira Code';-inkscape-font-specification:'Fira Code Semi-Bold';fill:#fafafa;stroke-width:4.18023"
       aria-label="adm" />
  </g>
</svg>
